<svg width="56" height="56" viewBox="0 0 56 56" fill="none" xmlns="http://www.w3.org/2000/svg">
<path d="M24.1903 9.47639C22.5569 10.6565 11.667 19.0354 11.667 32.6657C11.667 34.8106 12.0895 36.9345 12.9103 38.9162C13.7311 40.8978 14.9342 42.6984 16.4509 44.2151C17.9676 45.7318 19.7682 46.9349 21.7498 47.7557C23.6742 48.5528 25.7328 48.9743 27.8144 48.998C22.7456 48.8989 18.667 44.759 18.667 39.6664C18.667 39.2056 18.7004 38.7525 18.7649 38.3095C18.7677 38.2831 18.771 38.2566 18.775 38.2301C19.5576 32.9712 24.396 28.5066 26.7358 26.6236C27.4835 26.022 28.5175 26.022 29.2651 26.6237C31.6049 28.5066 36.4431 32.9712 37.2257 38.2301C37.2296 38.2567 37.233 38.2831 37.2357 38.3096C37.3003 38.7525 37.3337 39.2056 37.3337 39.6664C37.3337 44.759 33.2551 48.8989 28.1862 48.998C30.2679 48.9743 32.3264 48.5528 34.2508 47.7557C36.2325 46.9349 38.033 45.7318 39.5497 44.2151C41.0664 42.6984 42.2695 40.8978 43.0904 38.9162C43.8834 37.0017 44.3046 34.9544 44.3322 32.8836C44.3332 32.8568 44.3337 32.8299 44.3337 32.8029L44.3335 32.7291L44.3337 32.6659C44.2721 22.771 37.5772 17.3707 36.3568 16.4682C36.2424 16.3836 36.0902 16.3846 35.9758 16.4692C35.4864 16.8312 34.1232 17.9116 32.6593 19.7103C32.4923 19.9155 32.1642 19.8762 32.0512 19.6371C29.3008 13.8165 25.4904 10.2836 24.5903 9.49902C24.4742 9.3978 24.3151 9.38618 24.1903 9.47639Z" fill="#5A246B"/>
</svg>
